<svg version="1.1" id="Layer_1" xmlns="http://www.w3.org/2000/svg" x="0" y="0" viewBox="0 0 240 48" xml:space="preserve"><style type="text/css">.st0{fill:#008cce}.st2{fill:#007ac5}.st3{fill:#0067b5}.st4{fill:#004293}.st5{fill:#0055a6}.st6{fill:#004898}.st7{fill:#0b2c85}</style><path class="st0" d="M-.2 0h47.7v47.7H-.2z"/><path class="st0" d="M-.2 0l12 11.9L23.7 0z"/><path fill="#0098d6" d="M-.2 0v23.9l12-12z"/><path class="st0" d="M23.7 23.9l-11.9-12-12 12z"/><path class="st2" d="M23.7 23.9V0L11.8 11.9z"/><path class="st3" d="M23.7 0v23.9l11.9-12z"/><path class="st4" d="M47.6 23.9l-12-12-11.9 12z"/><path class="st2" d="M-.2 23.9l12 11.9 11.9-11.9z"/><path class="st3" d="M-.2 23.9v23.8l12-11.9z"/><path class="st5" d="M23.7 47.7L11.8 35.8l-12 11.9z"/><path class="st6" d="M23.7 47.7V23.9L11.8 35.8z"/><path class="st7" d="M23.7 23.9l11.9 11.9 12-11.9z"/><path class="st4" d="M23.7 23.9v23.8l11.9-11.9z"/><path class="st7" d="M47.6 47.7l-12-11.9-11.9 11.9zm0 0V23.9l-12 11.9z"/><path class="st5" d="M23.7 0l11.9 11.9L47.6 0z"/><path class="st6" d="M47.6 23.9V0l-12 11.9z"/><path fill="#fff" d="M47.6 29.8L32.3 15.3 9.1 38.5l8.4 8.5 14.8-14.5 15.3 15.2z"/><path d="M123.4 24.5c0-7.6 4.5-12.3 11-12.3 3.5 0 6.5.8 8.8 2.5v-4.4c-1.6-1.1-4.8-2.3-9.3-2.3-10 0-16.9 6.5-16.9 16.5S123.9 41 133.9 41c4.5 0 7.6-1 9.3-2.3v-4.4c-2.3 1.7-5.3 2.5-8.8 2.5-6.5 0-11-4.7-11-12.3M96.3 12.1h4.5c3.9 0 6.4 2.8 6.4 7.4 0 4.7-2.5 7.4-6.4 7.4h-4.5V12.1zm0 18.6h4.6c6.6 0 12.4-3.9 12.4-11.1 0-7.2-5.7-11.1-12.4-11.1H90.1v32.1h6.2v-9.9zM68.2 12.1h4.5c3.9 0 6.4 2.8 6.4 7.4 0 4.7-2.5 7.4-6.4 7.4h-4.5V12.1zm0 18.6h4.6c6.6 0 12.4-3.9 12.4-11.1 0-7.2-5.7-11.1-12.4-11.1H62v32.1h6.2v-9.9z" fill="#021d49"/><path class="st6" d="M192.7 21c-1.3-1.2-3.2-1.8-5.8-1.8-1.2 0-2.4.2-3.6.5-1.2.3-2.4.7-3.4 1.3l-.6.3 1.6 3.9.8-.4c.8-.4 1.6-.7 2.5-1 .8-.3 1.7-.4 2.7-.4 1.2 0 2 .3 2.5.8.5.6.8 1.5.8 2.7v.4l-2.5.1c-6.7.2-10.1 2.6-10.1 7 0 2.1.6 3.7 1.9 4.9 1.2 1.1 2.9 1.7 5.1 1.7 1.6 0 2.9-.2 4-.7.8-.3 1.5-.9 2.2-1.6l.4 2h3.8V26.5c-.3-2.4-1-4.3-2.3-5.5zm-2.8 10.1v.9c0 1.5-.4 2.7-1.3 3.5-.9.8-2.1 1.2-3.7 1.2-.9 0-1.6-.2-2.1-.6-.4-.4-.7-.9-.7-1.7 0-1.1.4-1.8 1.2-2.3.9-.5 2.4-.9 4.5-.9l2.1-.1zm25.3-9.9c-1.3-1.3-3.3-2-5.9-2-1.4 0-2.8.3-4 .9-.7.3-1.3.8-1.8 1.3l-.3-1.8h-4.1v21.1h4.8v-11c0-2.3.4-3.9 1.2-4.9.7-.9 2-1.4 3.7-1.4 1.3 0 2.2.3 2.7.9.6.6.8 1.6.8 3v13.3h4.8V27.1c.1-2.6-.6-4.6-1.9-5.9zm15.8 7.5l8.7-9.2h-6l-6.5 6.9-.9 1.1.1-16.1h-4.8v29.2h4.8V33l1.2-1.1 6.5 8.7h5.9zm-65.8-5.3c2.9-1 4.8-3.8 4.8-6.4 0-6.1-5.2-8.7-11.4-8.7h-10.2v32.1h11.9c7.1 0 13.1-2.4 13.1-9 0-4.2-3.7-7.2-8.2-8zM154.5 12h4.1c3.1 0 5.4 2.3 5.4 5.2 0 2.9-2.2 5.3-5.4 5.3h-4.1V12zm5.9 25h-5.9V26h4.1c4.2 0 8.2 1.4 8.2 5.5 0 3.7-2.9 5.5-6.4 5.5z"/></svg>